<svg width="293" height="293" viewBox="0 0 293 293" fill="none" xmlns="http://www.w3.org/2000/svg">
<g filter="url(#filter0_d)">
<circle cx="146.5" cy="146.5" r="141.5" fill="white"/>
<path d="M65.1611 115.138C65.3076 116.212 65.3076 117.506 65.1611 119.02C65.0635 120.533 65.1123 121.925 65.3076 123.194C65.6006 125.245 65.7715 127.271 65.8203 129.273C65.8691 131.275 65.9912 133.277 66.1865 135.279C66.333 136.939 66.5527 139.283 66.8457 142.311C67.1387 144.703 67.334 147.022 67.4316 149.269C67.5293 151.466 67.6758 153.761 67.8711 156.153C67.9199 157.032 68.0176 157.887 68.1641 158.717C68.3105 159.547 68.457 160.377 68.6035 161.207C68.7988 162.818 68.9209 163.722 68.9697 163.917C69.0674 164.112 69.9707 164.283 71.6797 164.43C72.8516 164.527 74.0967 164.576 75.415 164.576C77.1729 164.625 79.1504 164.381 81.3477 163.844C83.5449 163.258 85.498 162.647 87.207 162.013C89.9902 161.036 92.7734 159.62 95.5566 157.765C96.3867 157.179 97.3877 156.3 98.5596 155.128C99.7803 153.956 100.708 152.833 101.343 151.759C102.759 149.317 103.662 147.169 104.053 145.313C104.443 143.067 104.565 139.967 104.419 136.012C104.321 135.035 104.15 133.79 103.906 132.276C103.662 130.763 103.32 129.566 102.881 128.688C101.855 126.539 100.391 124.635 98.4863 122.975C97.3145 121.949 96.0449 120.899 94.6777 119.825C93.3594 118.751 91.9678 117.921 90.5029 117.335C86.9873 116.163 83.8135 115.333 80.9814 114.845C75.708 113.966 70.9473 113.526 66.6992 113.526C65.4785 113.526 64.9658 114.063 65.1611 115.138ZM51.2451 97.3398C51.0498 95.7773 50.9033 94.7764 50.8057 94.3369C50.708 93.8486 51.3184 93.5801 52.6367 93.5312C53.9062 93.4824 55.0781 93.3359 56.1523 93.0918C57.2266 92.7988 58.374 92.5059 59.5947 92.2129C60.8643 91.9199 61.6699 91.7979 62.0117 91.8467C62.4023 91.8467 62.6465 92.5059 62.7441 93.8242C62.7441 94.5078 62.6953 95.0693 62.5977 95.5088C62.5 95.9482 62.5 96.583 62.5977 97.4131C62.6953 98.9756 62.9883 99.8789 63.4766 100.123C64.0137 100.367 65.4541 100.514 67.7979 100.562C69.4092 100.611 70.8984 100.709 72.2656 100.855C73.6816 101.002 75.2197 101.1 76.8799 101.148C79.8584 101.393 83.1787 101.905 86.8408 102.687C88.4521 103.028 89.917 103.468 91.2354 104.005C92.5537 104.493 93.9453 105.006 95.4102 105.543C96.2891 105.885 97.4121 106.397 98.7793 107.081C100.146 107.765 101.221 108.326 102.002 108.766C102.979 109.4 104.199 110.255 105.664 111.329C108.35 113.526 110.352 115.675 111.67 117.774C112.598 119.435 113.33 121.363 113.867 123.561C114.453 125.758 114.99 127.809 115.479 129.713C116.553 134.254 116.895 139.308 116.504 144.874C116.357 146.778 115.967 148.756 115.332 150.807C114.746 152.809 114.16 154.688 113.574 156.446C113.135 157.569 111.963 159.547 110.059 162.379C109.424 163.355 108.423 164.43 107.056 165.602C105.688 166.773 104.565 167.726 103.687 168.458C101.587 170.069 99.2188 171.461 96.582 172.633C95.5566 173.121 94.4336 173.536 93.2129 173.878C92.041 174.171 90.8691 174.464 89.6973 174.757C86.4258 175.685 83.5205 176.344 80.9814 176.734C80.249 176.881 79.5898 176.979 79.0039 177.027C78.418 177.076 77.832 177.125 77.2461 177.174C75 177.467 73.1201 177.564 71.6064 177.467C70.5322 177.467 70.0195 178.077 70.0684 179.298C70.0684 180.421 70.0928 182.008 70.1416 184.059C70.2393 186.061 70.3857 187.599 70.5811 188.673C71.0693 192.091 71.5088 194.801 71.8994 196.803C72.29 198.756 72.6807 200.929 73.0713 203.321C73.2666 204.64 73.4375 205.958 73.584 207.276C73.7305 208.595 73.9258 209.962 74.1699 211.378C74.5605 213.429 74.5117 214.576 74.0234 214.82C73.291 215.162 72.3145 215.455 71.0938 215.699C69.873 215.992 68.6768 216.285 67.5049 216.578C65.9912 216.92 65.0146 217.091 64.5752 217.091C62.2803 217.14 61.084 216.31 60.9863 214.601C60.8398 213.575 60.8643 212.501 61.0596 211.378C61.2549 210.304 61.3281 209.229 61.2793 208.155C61.2305 207.423 61.1084 206.373 60.9131 205.006C60.1807 198.805 59.7168 195.313 59.5215 194.532C59.3262 193.751 59.082 190.211 58.7891 183.912C58.6914 182.643 58.6914 181.275 58.7891 179.811C58.8379 178.199 58.2764 177.442 57.1045 177.54C55.7861 177.687 54.7363 177.711 53.9551 177.613C53.2227 177.467 52.5146 177.394 51.8311 177.394C50.9521 177.442 50.415 176.856 50.2197 175.636C50.0732 174.562 50 173.268 50 171.754C50.0488 170.191 50.0732 168.824 50.0732 167.652C50.0732 165.211 50.6836 164.063 51.9043 164.21C52.4902 164.308 52.7588 164.405 52.71 164.503C52.71 164.552 53.0518 164.625 53.7354 164.723C54.9072 165.016 55.4443 165.016 55.3467 164.723C55.2979 164.43 55.3467 163.697 55.4932 162.525C55.4932 161.5 55.4443 160.426 55.3467 159.303C55.249 158.131 55.2002 157.008 55.2002 155.934C55.1514 154.42 55.127 152.882 55.127 151.319C55.127 149.757 55.0781 148.194 54.9805 146.632C54.7363 144.288 54.541 141.896 54.3945 139.454C54.248 137.013 54.0283 134.62 53.7354 132.276C53.4912 130.177 53.2959 128.077 53.1494 125.978C53.0029 123.878 52.8564 121.754 52.71 119.605C52.5635 117.75 52.417 115.87 52.2705 113.966C52.1729 112.013 52.124 110.084 52.124 108.18C52.124 106.373 52.0264 104.591 51.8311 102.833C51.6357 101.026 51.4404 99.1953 51.2451 97.3398ZM164.111 188.819C162.939 188.771 162.012 188.673 161.328 188.526C160.156 188.38 158.984 188.233 157.812 188.087C156.641 187.94 155.493 187.721 154.37 187.428C152.759 187.086 151.221 186.744 149.756 186.402C148.34 186.012 146.924 185.45 145.508 184.718C143.262 183.692 141.382 182.667 139.868 181.642C137.72 180.274 135.693 178.565 133.789 176.515C131.689 174.366 130.347 172.853 129.761 171.974C128.979 170.851 128.174 169.752 127.344 168.678C126.562 167.555 125.83 166.383 125.146 165.162C123.779 162.867 122.852 160.841 122.363 159.083C121.191 155.128 120.557 151.661 120.459 148.683C120.459 146.485 120.703 144.264 121.191 142.018C121.582 140.26 122.241 138.258 123.169 136.012C124.341 133.082 125.317 130.934 126.099 129.566C126.733 128.443 127.368 127.296 128.003 126.124C128.687 124.903 129.443 123.756 130.273 122.682C131.738 120.729 133.936 118.653 136.865 116.456C141.26 113.282 146.021 110.719 151.147 108.766C153.149 108.033 155.566 107.252 158.398 106.422C159.668 106.08 160.4 105.909 160.596 105.909C160.84 105.86 161.157 106.495 161.548 107.813C161.987 109.229 162.451 111.354 162.939 114.186C163.184 115.797 163.428 116.944 163.672 117.628C163.916 118.312 163.184 118.727 161.475 118.873C159.082 119.117 155.933 119.728 152.026 120.704C149.634 121.339 147.266 122.462 144.922 124.073C143.945 124.61 142.285 126.197 139.941 128.834C138.574 130.396 137.402 132.13 136.426 134.034C135.742 135.353 135.132 136.5 134.595 137.477C134.058 138.453 133.643 139.625 133.35 140.992C132.764 143.434 132.617 145.851 132.91 148.243C133.203 151.368 133.984 154.542 135.254 157.765C136.572 160.938 138.11 163.648 139.868 165.895C140.894 167.213 142.31 168.409 144.116 169.483C145.923 170.509 147.632 171.388 149.243 172.12C150.708 172.853 152.905 173.609 155.835 174.391C157.251 174.781 158.643 175.147 160.01 175.489C161.377 175.831 162.793 176.124 164.258 176.368C166.748 176.856 168.018 177.32 168.066 177.76C168.115 178.199 167.993 179.713 167.7 182.301C167.603 182.887 167.529 183.473 167.48 184.059C167.432 184.596 167.383 185.157 167.334 185.743C167.041 187.501 166.87 188.526 166.821 188.819C166.821 189.112 165.918 189.112 164.111 188.819ZM185.718 115.138C185.864 116.212 185.864 117.506 185.718 119.02C185.62 120.533 185.669 121.925 185.864 123.194C186.157 125.245 186.328 127.271 186.377 129.273C186.426 131.275 186.548 133.277 186.743 135.279C186.89 136.939 187.109 139.283 187.402 142.311C187.695 144.703 187.891 147.022 187.988 149.269C188.086 151.466 188.232 153.761 188.428 156.153C188.477 157.032 188.574 157.887 188.721 158.717C188.867 159.547 189.014 160.377 189.16 161.207C189.355 162.818 189.478 163.722 189.526 163.917C189.624 164.112 190.527 164.283 192.236 164.43C193.408 164.527 194.653 164.576 195.972 164.576C197.729 164.625 199.707 164.381 201.904 163.844C204.102 163.258 206.055 162.647 207.764 162.013C210.547 161.036 213.33 159.62 216.113 157.765C216.943 157.179 217.944 156.3 219.116 155.128C220.337 153.956 221.265 152.833 221.899 151.759C223.315 149.317 224.219 147.169 224.609 145.313C225 143.067 225.122 139.967 224.976 136.012C224.878 135.035 224.707 133.79 224.463 132.276C224.219 130.763 223.877 129.566 223.438 128.688C222.412 126.539 220.947 124.635 219.043 122.975C217.871 121.949 216.602 120.899 215.234 119.825C213.916 118.751 212.524 117.921 211.06 117.335C207.544 116.163 204.37 115.333 201.538 114.845C196.265 113.966 191.504 113.526 187.256 113.526C186.035 113.526 185.522 114.063 185.718 115.138ZM171.802 97.3398C171.606 95.7773 171.46 94.7764 171.362 94.3369C171.265 93.8486 171.875 93.5801 173.193 93.5312C174.463 93.4824 175.635 93.3359 176.709 93.0918C177.783 92.7988 178.931 92.5059 180.151 92.2129C181.421 91.9199 182.227 91.7979 182.568 91.8467C182.959 91.8467 183.203 92.5059 183.301 93.8242C183.301 94.5078 183.252 95.0693 183.154 95.5088C183.057 95.9482 183.057 96.583 183.154 97.4131C183.252 98.9756 183.545 99.8789 184.033 100.123C184.57 100.367 186.011 100.514 188.354 100.562C189.966 100.611 191.455 100.709 192.822 100.855C194.238 101.002 195.776 101.1 197.437 101.148C200.415 101.393 203.735 101.905 207.397 102.687C209.009 103.028 210.474 103.468 211.792 104.005C213.11 104.493 214.502 105.006 215.967 105.543C216.846 105.885 217.969 106.397 219.336 107.081C220.703 107.765 221.777 108.326 222.559 108.766C223.535 109.4 224.756 110.255 226.221 111.329C228.906 113.526 230.908 115.675 232.227 117.774C233.154 119.435 233.887 121.363 234.424 123.561C235.01 125.758 235.547 127.809 236.035 129.713C237.109 134.254 237.451 139.308 237.061 144.874C236.914 146.778 236.523 148.756 235.889 150.807C235.303 152.809 234.717 154.688 234.131 156.446C233.691 157.569 232.52 159.547 230.615 162.379C229.98 163.355 228.979 164.43 227.612 165.602C226.245 166.773 225.122 167.726 224.243 168.458C222.144 170.069 219.775 171.461 217.139 172.633C216.113 173.121 214.99 173.536 213.77 173.878C212.598 174.171 211.426 174.464 210.254 174.757C206.982 175.685 204.077 176.344 201.538 176.734C200.806 176.881 200.146 176.979 199.561 177.027C198.975 177.076 198.389 177.125 197.803 177.174C195.557 177.467 193.677 177.564 192.163 177.467C191.089 177.467 190.576 178.077 190.625 179.298C190.625 180.421 190.649 182.008 190.698 184.059C190.796 186.061 190.942 187.599 191.138 188.673C191.626 192.091 192.065 194.801 192.456 196.803C192.847 198.756 193.237 200.929 193.628 203.321C193.823 204.64 193.994 205.958 194.141 207.276C194.287 208.595 194.482 209.962 194.727 211.378C195.117 213.429 195.068 214.576 194.58 214.82C193.848 215.162 192.871 215.455 191.65 215.699C190.43 215.992 189.233 216.285 188.062 216.578C186.548 216.92 185.571 217.091 185.132 217.091C182.837 217.14 181.641 216.31 181.543 214.601C181.396 213.575 181.421 212.501 181.616 211.378C181.812 210.304 181.885 209.229 181.836 208.155C181.787 207.423 181.665 206.373 181.47 205.006C180.737 198.805 180.273 195.313 180.078 194.532C179.883 193.751 179.639 190.211 179.346 183.912C179.248 182.643 179.248 181.275 179.346 179.811C179.395 178.199 178.833 177.442 177.661 177.54C176.343 177.687 175.293 177.711 174.512 177.613C173.779 177.467 173.071 177.394 172.388 177.394C171.509 177.442 170.972 176.856 170.776 175.636C170.63 174.562 170.557 173.268 170.557 171.754C170.605 170.191 170.63 168.824 170.63 167.652C170.63 165.211 171.24 164.063 172.461 164.21C173.047 164.308 173.315 164.405 173.267 164.503C173.267 164.552 173.608 164.625 174.292 164.723C175.464 165.016 176.001 165.016 175.903 164.723C175.854 164.43 175.903 163.697 176.05 162.525C176.05 161.5 176.001 160.426 175.903 159.303C175.806 158.131 175.757 157.008 175.757 155.934C175.708 154.42 175.684 152.882 175.684 151.319C175.684 149.757 175.635 148.194 175.537 146.632C175.293 144.288 175.098 141.896 174.951 139.454C174.805 137.013 174.585 134.62 174.292 132.276C174.048 130.177 173.853 128.077 173.706 125.978C173.56 123.878 173.413 121.754 173.267 119.605C173.12 117.75 172.974 115.87 172.827 113.966C172.729 112.013 172.681 110.084 172.681 108.18C172.681 106.373 172.583 104.591 172.388 102.833C172.192 101.026 171.997 99.1953 171.802 97.3398Z" fill="#00A89D"/>
</g>
<defs>
<filter id="filter0_d" x="0" y="0" width="293" height="293" filterUnits="userSpaceOnUse" color-interpolation-filters="sRGB">
<feFlood flood-opacity="0" result="BackgroundImageFix"/>
<feColorMatrix in="SourceAlpha" type="matrix" values="0 0 0 0 0 0 0 0 0 0 0 0 0 0 0 0 0 0 127 0"/>
<feOffset/>
<feGaussianBlur stdDeviation="2.5"/>
<feColorMatrix type="matrix" values="0 0 0 0 0 0 0 0 0 0 0 0 0 0 0 0 0 0 0.15 0"/>
<feBlend mode="normal" in2="BackgroundImageFix" result="effect1_dropShadow"/>
<feBlend mode="normal" in="SourceGraphic" in2="effect1_dropShadow" result="shape"/>
</filter>
</defs>
</svg>
