<svg width="433" height="433" viewBox="0 0 433 433" fill="none" xmlns="http://www.w3.org/2000/svg">
<g filter="url(#filter0_d)">
<circle cx="216.5" cy="214.5" r="141.5" fill="#00A89D"/>
<path d="M135.161 183.138C135.308 184.212 135.308 185.506 135.161 187.02C135.063 188.533 135.112 189.925 135.308 191.194C135.601 193.245 135.771 195.271 135.82 197.273C135.869 199.275 135.991 201.277 136.187 203.279C136.333 204.939 136.553 207.283 136.846 210.311C137.139 212.703 137.334 215.022 137.432 217.269C137.529 219.466 137.676 221.761 137.871 224.153C137.92 225.032 138.018 225.887 138.164 226.717C138.311 227.547 138.457 228.377 138.604 229.207C138.799 230.818 138.921 231.722 138.97 231.917C139.067 232.112 139.971 232.283 141.68 232.43C142.852 232.527 144.097 232.576 145.415 232.576C147.173 232.625 149.15 232.381 151.348 231.844C153.545 231.258 155.498 230.647 157.207 230.013C159.99 229.036 162.773 227.62 165.557 225.765C166.387 225.179 167.388 224.3 168.56 223.128C169.78 221.956 170.708 220.833 171.343 219.759C172.759 217.317 173.662 215.169 174.053 213.313C174.443 211.067 174.565 207.967 174.419 204.012C174.321 203.035 174.15 201.79 173.906 200.276C173.662 198.763 173.32 197.566 172.881 196.688C171.855 194.539 170.391 192.635 168.486 190.975C167.314 189.949 166.045 188.899 164.678 187.825C163.359 186.751 161.968 185.921 160.503 185.335C156.987 184.163 153.813 183.333 150.981 182.845C145.708 181.966 140.947 181.526 136.699 181.526C135.479 181.526 134.966 182.063 135.161 183.138ZM121.245 165.34C121.05 163.777 120.903 162.776 120.806 162.337C120.708 161.849 121.318 161.58 122.637 161.531C123.906 161.482 125.078 161.336 126.152 161.092C127.227 160.799 128.374 160.506 129.595 160.213C130.864 159.92 131.67 159.798 132.012 159.847C132.402 159.847 132.646 160.506 132.744 161.824C132.744 162.508 132.695 163.069 132.598 163.509C132.5 163.948 132.5 164.583 132.598 165.413C132.695 166.976 132.988 167.879 133.477 168.123C134.014 168.367 135.454 168.514 137.798 168.562C139.409 168.611 140.898 168.709 142.266 168.855C143.682 169.002 145.22 169.1 146.88 169.148C149.858 169.393 153.179 169.905 156.841 170.687C158.452 171.028 159.917 171.468 161.235 172.005C162.554 172.493 163.945 173.006 165.41 173.543C166.289 173.885 167.412 174.397 168.779 175.081C170.146 175.765 171.221 176.326 172.002 176.766C172.979 177.4 174.199 178.255 175.664 179.329C178.35 181.526 180.352 183.675 181.67 185.774C182.598 187.435 183.33 189.363 183.867 191.561C184.453 193.758 184.99 195.809 185.479 197.713C186.553 202.254 186.895 207.308 186.504 212.874C186.357 214.778 185.967 216.756 185.332 218.807C184.746 220.809 184.16 222.688 183.574 224.446C183.135 225.569 181.963 227.547 180.059 230.379C179.424 231.355 178.423 232.43 177.056 233.602C175.688 234.773 174.565 235.726 173.687 236.458C171.587 238.069 169.219 239.461 166.582 240.633C165.557 241.121 164.434 241.536 163.213 241.878C162.041 242.171 160.869 242.464 159.697 242.757C156.426 243.685 153.521 244.344 150.981 244.734C150.249 244.881 149.59 244.979 149.004 245.027C148.418 245.076 147.832 245.125 147.246 245.174C145 245.467 143.12 245.564 141.606 245.467C140.532 245.467 140.02 246.077 140.068 247.298C140.068 248.421 140.093 250.008 140.142 252.059C140.239 254.061 140.386 255.599 140.581 256.673C141.069 260.091 141.509 262.801 141.899 264.803C142.29 266.756 142.681 268.929 143.071 271.321C143.267 272.64 143.438 273.958 143.584 275.276C143.73 276.595 143.926 277.962 144.17 279.378C144.561 281.429 144.512 282.576 144.023 282.82C143.291 283.162 142.314 283.455 141.094 283.699C139.873 283.992 138.677 284.285 137.505 284.578C135.991 284.92 135.015 285.091 134.575 285.091C132.28 285.14 131.084 284.31 130.986 282.601C130.84 281.575 130.864 280.501 131.06 279.378C131.255 278.304 131.328 277.229 131.279 276.155C131.23 275.423 131.108 274.373 130.913 273.006C130.181 266.805 129.717 263.313 129.521 262.532C129.326 261.751 129.082 258.211 128.789 251.912C128.691 250.643 128.691 249.275 128.789 247.811C128.838 246.199 128.276 245.442 127.104 245.54C125.786 245.687 124.736 245.711 123.955 245.613C123.223 245.467 122.515 245.394 121.831 245.394C120.952 245.442 120.415 244.856 120.22 243.636C120.073 242.562 120 241.268 120 239.754C120.049 238.191 120.073 236.824 120.073 235.652C120.073 233.211 120.684 232.063 121.904 232.21C122.49 232.308 122.759 232.405 122.71 232.503C122.71 232.552 123.052 232.625 123.735 232.723C124.907 233.016 125.444 233.016 125.347 232.723C125.298 232.43 125.347 231.697 125.493 230.525C125.493 229.5 125.444 228.426 125.347 227.303C125.249 226.131 125.2 225.008 125.2 223.934C125.151 222.42 125.127 220.882 125.127 219.319C125.127 217.757 125.078 216.194 124.98 214.632C124.736 212.288 124.541 209.896 124.395 207.454C124.248 205.013 124.028 202.62 123.735 200.276C123.491 198.177 123.296 196.077 123.149 193.978C123.003 191.878 122.856 189.754 122.71 187.605C122.563 185.75 122.417 183.87 122.271 181.966C122.173 180.013 122.124 178.084 122.124 176.18C122.124 174.373 122.026 172.591 121.831 170.833C121.636 169.026 121.44 167.195 121.245 165.34ZM234.111 256.819C232.939 256.771 232.012 256.673 231.328 256.526C230.156 256.38 228.984 256.233 227.812 256.087C226.641 255.94 225.493 255.721 224.37 255.428C222.759 255.086 221.221 254.744 219.756 254.402C218.34 254.012 216.924 253.45 215.508 252.718C213.262 251.692 211.382 250.667 209.868 249.642C207.72 248.274 205.693 246.565 203.789 244.515C201.689 242.366 200.347 240.853 199.761 239.974C198.979 238.851 198.174 237.752 197.344 236.678C196.562 235.555 195.83 234.383 195.146 233.162C193.779 230.867 192.852 228.841 192.363 227.083C191.191 223.128 190.557 219.661 190.459 216.683C190.459 214.485 190.703 212.264 191.191 210.018C191.582 208.26 192.241 206.258 193.169 204.012C194.341 201.082 195.317 198.934 196.099 197.566C196.733 196.443 197.368 195.296 198.003 194.124C198.687 192.903 199.443 191.756 200.273 190.682C201.738 188.729 203.936 186.653 206.865 184.456C211.26 181.282 216.021 178.719 221.147 176.766C223.149 176.033 225.566 175.252 228.398 174.422C229.668 174.08 230.4 173.909 230.596 173.909C230.84 173.86 231.157 174.495 231.548 175.813C231.987 177.229 232.451 179.354 232.939 182.186C233.184 183.797 233.428 184.944 233.672 185.628C233.916 186.312 233.184 186.727 231.475 186.873C229.082 187.117 225.933 187.728 222.026 188.704C219.634 189.339 217.266 190.462 214.922 192.073C213.945 192.61 212.285 194.197 209.941 196.834C208.574 198.396 207.402 200.13 206.426 202.034C205.742 203.353 205.132 204.5 204.595 205.477C204.058 206.453 203.643 207.625 203.35 208.992C202.764 211.434 202.617 213.851 202.91 216.243C203.203 219.368 203.984 222.542 205.254 225.765C206.572 228.938 208.11 231.648 209.868 233.895C210.894 235.213 212.31 236.409 214.116 237.483C215.923 238.509 217.632 239.388 219.243 240.12C220.708 240.853 222.905 241.609 225.835 242.391C227.251 242.781 228.643 243.147 230.01 243.489C231.377 243.831 232.793 244.124 234.258 244.368C236.748 244.856 238.018 245.32 238.066 245.76C238.115 246.199 237.993 247.713 237.7 250.301C237.603 250.887 237.529 251.473 237.48 252.059C237.432 252.596 237.383 253.157 237.334 253.743C237.041 255.501 236.87 256.526 236.821 256.819C236.821 257.112 235.918 257.112 234.111 256.819ZM255.718 183.138C255.864 184.212 255.864 185.506 255.718 187.02C255.62 188.533 255.669 189.925 255.864 191.194C256.157 193.245 256.328 195.271 256.377 197.273C256.426 199.275 256.548 201.277 256.743 203.279C256.89 204.939 257.109 207.283 257.402 210.311C257.695 212.703 257.891 215.022 257.988 217.269C258.086 219.466 258.232 221.761 258.428 224.153C258.477 225.032 258.574 225.887 258.721 226.717C258.867 227.547 259.014 228.377 259.16 229.207C259.355 230.818 259.478 231.722 259.526 231.917C259.624 232.112 260.527 232.283 262.236 232.43C263.408 232.527 264.653 232.576 265.972 232.576C267.729 232.625 269.707 232.381 271.904 231.844C274.102 231.258 276.055 230.647 277.764 230.013C280.547 229.036 283.33 227.62 286.113 225.765C286.943 225.179 287.944 224.3 289.116 223.128C290.337 221.956 291.265 220.833 291.899 219.759C293.315 217.317 294.219 215.169 294.609 213.313C295 211.067 295.122 207.967 294.976 204.012C294.878 203.035 294.707 201.79 294.463 200.276C294.219 198.763 293.877 197.566 293.438 196.688C292.412 194.539 290.947 192.635 289.043 190.975C287.871 189.949 286.602 188.899 285.234 187.825C283.916 186.751 282.524 185.921 281.06 185.335C277.544 184.163 274.37 183.333 271.538 182.845C266.265 181.966 261.504 181.526 257.256 181.526C256.035 181.526 255.522 182.063 255.718 183.138ZM241.802 165.34C241.606 163.777 241.46 162.776 241.362 162.337C241.265 161.849 241.875 161.58 243.193 161.531C244.463 161.482 245.635 161.336 246.709 161.092C247.783 160.799 248.931 160.506 250.151 160.213C251.421 159.92 252.227 159.798 252.568 159.847C252.959 159.847 253.203 160.506 253.301 161.824C253.301 162.508 253.252 163.069 253.154 163.509C253.057 163.948 253.057 164.583 253.154 165.413C253.252 166.976 253.545 167.879 254.033 168.123C254.57 168.367 256.011 168.514 258.354 168.562C259.966 168.611 261.455 168.709 262.822 168.855C264.238 169.002 265.776 169.1 267.437 169.148C270.415 169.393 273.735 169.905 277.397 170.687C279.009 171.028 280.474 171.468 281.792 172.005C283.11 172.493 284.502 173.006 285.967 173.543C286.846 173.885 287.969 174.397 289.336 175.081C290.703 175.765 291.777 176.326 292.559 176.766C293.535 177.4 294.756 178.255 296.221 179.329C298.906 181.526 300.908 183.675 302.227 185.774C303.154 187.435 303.887 189.363 304.424 191.561C305.01 193.758 305.547 195.809 306.035 197.713C307.109 202.254 307.451 207.308 307.061 212.874C306.914 214.778 306.523 216.756 305.889 218.807C305.303 220.809 304.717 222.688 304.131 224.446C303.691 225.569 302.52 227.547 300.615 230.379C299.98 231.355 298.979 232.43 297.612 233.602C296.245 234.773 295.122 235.726 294.243 236.458C292.144 238.069 289.775 239.461 287.139 240.633C286.113 241.121 284.99 241.536 283.77 241.878C282.598 242.171 281.426 242.464 280.254 242.757C276.982 243.685 274.077 244.344 271.538 244.734C270.806 244.881 270.146 244.979 269.561 245.027C268.975 245.076 268.389 245.125 267.803 245.174C265.557 245.467 263.677 245.564 262.163 245.467C261.089 245.467 260.576 246.077 260.625 247.298C260.625 248.421 260.649 250.008 260.698 252.059C260.796 254.061 260.942 255.599 261.138 256.673C261.626 260.091 262.065 262.801 262.456 264.803C262.847 266.756 263.237 268.929 263.628 271.321C263.823 272.64 263.994 273.958 264.141 275.276C264.287 276.595 264.482 277.962 264.727 279.378C265.117 281.429 265.068 282.576 264.58 282.82C263.848 283.162 262.871 283.455 261.65 283.699C260.43 283.992 259.233 284.285 258.062 284.578C256.548 284.92 255.571 285.091 255.132 285.091C252.837 285.14 251.641 284.31 251.543 282.601C251.396 281.575 251.421 280.501 251.616 279.378C251.812 278.304 251.885 277.229 251.836 276.155C251.787 275.423 251.665 274.373 251.47 273.006C250.737 266.805 250.273 263.313 250.078 262.532C249.883 261.751 249.639 258.211 249.346 251.912C249.248 250.643 249.248 249.275 249.346 247.811C249.395 246.199 248.833 245.442 247.661 245.54C246.343 245.687 245.293 245.711 244.512 245.613C243.779 245.467 243.071 245.394 242.388 245.394C241.509 245.442 240.972 244.856 240.776 243.636C240.63 242.562 240.557 241.268 240.557 239.754C240.605 238.191 240.63 236.824 240.63 235.652C240.63 233.211 241.24 232.063 242.461 232.21C243.047 232.308 243.315 232.405 243.267 232.503C243.267 232.552 243.608 232.625 244.292 232.723C245.464 233.016 246.001 233.016 245.903 232.723C245.854 232.43 245.903 231.697 246.05 230.525C246.05 229.5 246.001 228.426 245.903 227.303C245.806 226.131 245.757 225.008 245.757 223.934C245.708 222.42 245.684 220.882 245.684 219.319C245.684 217.757 245.635 216.194 245.537 214.632C245.293 212.288 245.098 209.896 244.951 207.454C244.805 205.013 244.585 202.62 244.292 200.276C244.048 198.177 243.853 196.077 243.706 193.978C243.56 191.878 243.413 189.754 243.267 187.605C243.12 185.75 242.974 183.87 242.827 181.966C242.729 180.013 242.681 178.084 242.681 176.18C242.681 174.373 242.583 172.591 242.388 170.833C242.192 169.026 241.997 167.195 241.802 165.34Z" fill="white"/>
</g>
<defs>
<filter id="filter0_d" x="0" y="0" width="433" height="433" filterUnits="userSpaceOnUse" color-interpolation-filters="sRGB">
<feFlood flood-opacity="0" result="BackgroundImageFix"/>
<feColorMatrix in="SourceAlpha" type="matrix" values="0 0 0 0 0 0 0 0 0 0 0 0 0 0 0 0 0 0 127 0"/>
<feOffset dy="2"/>
<feGaussianBlur stdDeviation="37.5"/>
<feColorMatrix type="matrix" values="0 0 0 0 0 0 0 0 0 0 0 0 0 0 0 0 0 0 0.25 0"/>
<feBlend mode="normal" in2="BackgroundImageFix" result="effect1_dropShadow"/>
<feBlend mode="normal" in="SourceGraphic" in2="effect1_dropShadow" result="shape"/>
</filter>
</defs>
</svg>
